# xmcd
#
# Track frame offsets:
#	150
#	23042
#	41042
#	67152
#	89795
#	113650
#	137302
#	152205
#	166330
#	192522
#	229867
#	266950
#
# Disc length: 4135 seconds
#
# Revision: 1
# Processed by: cddbd v1.4PL0 Copyright (c) Steve Scherf et al.
# Submitted via: EasyCDDAExtractor 6.0.0.1
#
DISCID=ab10250c
DTITLE=Hot Tuna - Platinum and Gold (remastered)
DYEAR=1993
DGENRE=Blues
TTITLE0=Hestitation Blues
TTITLE1=99 Year Blues
TTITLE2=Candy Man
TTITLE3=Sea Child
TTITLE4=Water Song
TTITLE5=Hit Single # 1
TTITLE6=I Wish You Would
TTITLE7=Bowlegged Woman, Knock Kneed Man
TTITLE8=Funky # 7
TTITLE9=John's Other
TTITLE10=Keep Your Lamps Trimmed and Burning
TTITLE11=Come Back Baby
EXTD=
EXTT0=
EXTT1=
EXTT2=
EXTT3=
EXTT4=
EXTT5=
EXTT6=
EXTT7=
EXTT8=
EXTT9=
EXTT10=
EXTT11=
PLAYORDER=
